<svg xmlns="http://www.w3.org/2000/svg" viewBox="0 0 764.01 151.55"><defs><style>.cls-1{fill:#0c293f;}.cls-2{fill:#ca1f46;}</style></defs><g id="Layer_2" data-name="Layer 2"><g id="Layer_1-2" data-name="Layer 1"><path class="cls-1" d="M186.86,96.89H174.65v52.59H147.32V6.62h41.82c32.71,0,52.38,15.12,52.38,43.9C241.52,81.36,219.58,96.89,186.86,96.89Zm.83-68.32h-13V74.74h12c17.6,0,28-7.25,28-23.6C214.61,36.23,205.29,28.57,187.69,28.57Z"/><path class="cls-1" d="M312.3,149.48l-2.07-13c-8.08,8.49-18.43,15.12-33.34,15.12-17,0-28.36-10.35-28.36-27.74,0-24.23,19.88-34.79,60.25-38.72v-2.9c0-10.76-6.21-14.91-17.18-14.91-11.6,0-22.57,3.32-33.34,8.08l-3.1-19.88c11.59-4.55,23.81-8.07,39.75-8.07,25.88,0,38.71,9.52,38.71,33.54v68.53Zm-3.52-49.9c-28.78,3.52-35.61,12-35.61,21.54,0,7.24,4.55,11.59,12.21,11.59,8.49,0,16.57-3.93,23.4-10.77Z"/><path class="cls-1" d="M359.29,149.48V3.93L384.13,0V149.48Z"/><path class="cls-1" d="M468.6,149.48l-2.07-13c-8.08,8.49-18.43,15.12-33.34,15.12-17,0-28.36-10.35-28.36-27.74,0-24.23,19.87-34.79,60.25-38.72v-2.9c0-10.76-6.21-14.91-17.19-14.91-11.59,0-22.56,3.32-33.33,8.08l-3.1-19.88c11.59-4.55,23.8-8.07,39.75-8.07,25.87,0,38.71,9.52,38.71,33.54v68.53Zm-3.52-49.9c-28.78,3.52-35.61,12-35.61,21.54,0,7.24,4.55,11.59,12.21,11.59,8.49,0,16.57-3.93,23.4-10.77Z"/><path class="cls-1" d="M580,149.48l-2.07-13.87c-7,8.49-16.77,15.94-30.64,15.94-20.91,0-37.68-15.53-37.68-49.28,0-37.26,20.5-53.82,43.69-53.82a70.4,70.4,0,0,1,23.18,3.72V3.93L601.3,0V149.48Zm-3.52-76.81A40.32,40.32,0,0,0,557,68.32c-13,0-22.57,10.56-22.57,32.51,0,19.46,8.29,28.57,19.26,28.57,9.11,0,16.15-5.39,22.77-13.67Z"/><path class="cls-1" d="M640.21,32.71c-8.28,0-14.91-5.8-14.91-14.08,0-8.49,6.63-14.49,14.91-14.49a14.32,14.32,0,0,1,14.7,14.49C654.91,26.91,648.28,32.71,640.21,32.71ZM627.58,149.48v-100h24.85v100Z"/><path class="cls-1" d="M739.17,149.48V84.05c0-8.69-3.73-14.69-12.84-14.69-7.86,0-15.53,5-22.77,12.63v67.49H678.71v-100h21.12l2.28,14.08c9.32-8.9,19.87-16.15,33.33-16.15,18.63,0,28.57,11.39,28.57,30v72Z"/><path class="cls-2" d="M33.14,21.41h71.53l6.58-13.77H33.14A38.31,38.31,0,0,0,3.06,22l8.57,11.79A24.66,24.66,0,0,1,33.14,21.41Z"/><path class="cls-2" d="M38.21,46.89l-.2-.27a.58.58,0,0,1,.46-.94H90.91v36L73.37,56H56.65l29.1,40.86h18.92V36.4a4.49,4.49,0,0,0-4.49-4.49H38.78A14.64,14.64,0,0,0,25.54,40a14.26,14.26,0,0,0,1.54,15L94.6,149.48h16.65Z"/><polygon class="cls-2" points="0 59.23 65.57 149.48 82.58 149.48 0 35.83 0 59.23"/><polygon class="cls-2" points="0 77.12 0 100.52 35.52 149.44 52.53 149.44 0 77.12"/><polygon class="cls-2" points="0 118.33 0 141.72 5.64 149.48 22.6 149.48 0 118.33"/></g></g></svg>